<svg version="1.1" id="svg2" xmlns="http://www.w3.org/2000/svg" x="0" y="0" viewBox="0 0 708.6 146.6" style="enable-background:new 0 0 708.6 146.6" xml:space="preserve">
  <style>
    .st2{fill:#424041}
  </style>
  <g id="g20" transform="translate(95.748 51.872)">
    <path id="path22" d="M-19.8 94.7h63.1c14.4 0 14.5-15.3 13.1-22.9-.8-5.1-9.4-5-10.4 0v5.9c0 2.7-2.2 4.9-4.9 4.9H-79.8c-2.7 0-4.9-2.2-4.9-4.9v-5.9c-.9-5-9.6-5.1-10.4 0-1.5 7.6-1.3 22.9 13.1 22.9h62.2zM-64.4-51.9h97.2c6.8 0 12.4 5.9 12.4 13.1v6.3c0 8.9-12 8.8-12 .1v-3.4c0-2.2-1.8-4-4-4h-97.4c-2.2 0-4 1.8-4 4v3.4c0 8.8-11.5 8.8-11.5.2v-6.5c0-7.2 5.6-13.1 12.4-13.1.1-.1 6.9-.1 6.9-.1z" style="fill-rule:evenodd;clip-rule:evenodd;fill:#2a6bae"/>
  </g>
  <g id="g24" transform="translate(145.836 111.368)">
    <path id="path26" d="M-7.3-39.2C-.6-36 4.1-29.5 4.1-22c0 10.6-9.2 19.2-20.5 19.2h-31.7c-3 0-5.4-2.3-5.4-5V-68c0-2.9 2.4-5.3 5.3-5.3h26.4c11.1 0 20.2 9.1 20.2 20.2-.1 5.4-2.2 10.3-5.7 13.9m-23.6-4.9h10.1v-.1c4.6-.7 8.1-4.7 8.1-9.4 0-5.3-4.3-9.6-9.6-9.6h-20.2v50h25.7c5.4 0 9.9-4.4 9.9-9.9s-4.4-9.9-9.9-9.9h-14.1c-3.1 0-5.5-2.5-5.5-5.5-.1-3.1 2.4-5.6 5.5-5.6" style="fill-rule:evenodd;clip-rule:evenodd;fill:#424041"/>
  </g>
  <g id="g36" transform="translate(104.85 87.015)">
    <path id="path38" class="st2" d="M-17.6 15.6c.4 3.5-2.2 6.6-5.6 7-3.5.4-6.6-2.2-7-5.6l-5.2-47.9-18.4 46.8-.1.1v.5c-.3.6-.8 1.2-1.3 1.7l-.1.1c-.3.3-.7.6-1.1.8l-.1.1-.1.1h-1c-.6.2-1.2.3-1.9.4h-.6c-.7 0-1.4-.2-2.1-.4h-.6l-.1-.1-.1-.1h-.1c-.3-.2-.7-.4-1-.7l-.2-.2c-.1 0-.1-.1-.2-.2l-.2-.2-.2-.2c-.3-.3-.5-.6-.7-1v-.1l-.1-.1-.1-.1v-.6l-18.5-46.9-5.1 48.2c-.4 3.5-3.5 6-7 5.6-3.5-.4-6-3.5-5.6-7l6.1-56.5c.1-.7.2-1.3.4-2 .2-.6.5-1.2.8-1.8 1.6-2.9 4.5-5 7.9-5.5h.3c.5-.1 1.1-.1 1.6 0 .7 0 1.3.1 1.9.3 3.3.8 6.1 3 7.4 6.4l15.7 39.9 15.7-39.9c1.3-3.3 4.1-5.6 7.4-6.4.6-.1 1.2-.2 1.9-.3h1.9c3.4.5 6.3 2.5 7.9 5.5.3.6.6 1.2.8 1.8.2.6.3 1.3.4 2l6.3 56.5z"/>
  </g>
  <path style="fill:none" d="M-615.6-338h818.1v818.1h-818.1z"/>
  <g id="g28" transform="translate(63.3 37.077)">
    <path id="path30" class="st2" d="M238.8 8.4c0-3.2 2.6-5.8 5.8-5.8 3.2 0 5.8 2.6 5.8 5.8v31.2c0 7.1-2.9 13.6-7.6 18.3-4.7 4.7-11.1 7.6-18.3 7.6-7.1 0-13.6-2.9-18.3-7.6-4.7-4.7-7.6-11.1-7.6-18.3V8.4c0-3.2 2.6-5.8 5.8-5.8s5.8 2.6 5.8 5.8v31.2c0 3.9 1.6 7.5 4.2 10.1 2.6 2.6 6.2 4.2 10.1 4.2 3.9 0 7.5-1.6 10.2-4.2 2.6-2.6 4.2-6.2 4.2-10.1V8.4z"/>
  </g>
  <g id="g32" transform="translate(76.136 26.345)">
    <path id="path34" class="st2" d="M280.5 64.7c3.2 0 5.8 2.6 5.8 5.8s-2.6 5.8-5.8 5.8h-15.9c-6 0-11.4-2.4-15.3-6.4-3.9-3.9-6.3-9.3-6.3-15.3V19.1c0-3.2 2.6-5.8 5.8-5.8 3.2 0 5.8 2.6 5.8 5.8v35.4c0 2.8 1.2 5.3 3 7.2 1.8 1.8 4.4 3 7.2 3h15.7z"/>
  </g>
  <g id="g40" transform="translate(53.307 25.145)">
    <path id="path42" class="st2" d="M206.4 71c.4 3.2-1.9 6-5 6.4-3.2.4-6-1.9-6.4-5l-5-41.6-17.6 40.8c-1.3 2.9-4.6 4.3-7.6 3-1.4-.6-2.5-1.7-3-3l-17.6-40.8-4.9 41.5c-.4 3.2-3.2 5.4-6.4 5-3.2-.4-5.4-3.2-5-6.4l5.7-48.2c.4-3.1 2.3-5.7 5-7.2.4-.2.7-.4 1.1-.5.1-.1.3-.1.4-.2.5-.2 1.1-.3 1.7-.4h.1c3-.4 6 .6 8.1 2.5.4.4.8.8 1.2 1.4.2.3.5.7.7 1.1l.3.6 14.9 34.6L182 20c1.2-2.9 3.8-4.8 6.7-5.5.6-.1 1.1-.2 1.7-.2h1.7c3.1.4 5.7 2.1 7.2 4.6.3.5.6 1.1.8 1.6.1.4.2.7.3 1.1.1.2.1.5.1.8v.1l5.9 48.5z"/>
  </g>
  <g id="g44" transform="translate(82.07 24.986)">
    <path id="path46" class="st2" d="M299.7 71.8c0 3.2-2.6 5.8-5.8 5.8-3.2 0-5.8-2.6-5.8-5.8V26.3h-16.4c-3.2 0-5.8-2.6-5.8-5.8s2.6-5.8 5.8-5.8h44.5c3.2 0 5.8 2.6 5.8 5.8s-2.6 5.8-5.8 5.8h-16.4v45.5z"/>
  </g>
  <g id="g48" transform="translate(90.543 24.986)">
    <path id="path50" class="st2" d="M327.2 71.8c0 3.2-2.6 5.8-5.8 5.8s-5.8-2.6-5.8-5.8V20.5c0-3.2 2.6-5.8 5.8-5.8s5.8 2.6 5.8 5.8v51.3z"/>
  </g>
  <g id="g52" transform="translate(118.406 25.151)">
    <path id="path54" class="st2" d="M417.6 70.9c.4 3.2-1.9 6-5 6.4-3.2.4-6-1.9-6.4-5l-2-16.3h-20c-3.2 0-5.8-2.6-5.8-5.8s2.6-5.8 5.8-5.8h18.5l-.5-4.2v-.4c-.1-1-.4-2-.7-2.9-.3-1.1-.7-2.1-1.2-3-2.3-4.6-6.4-7.8-11.7-7.8h-.1c-1 0-2 .1-2.9.3-.9.2-1.7.5-2.6 1-4.4 2.3-7.4 7.2-8 12.8l-3.6 32c-.3 3.2-3.2 5.4-6.4 5.1-3.2-.3-5.4-3.2-5.1-6.4l3.6-32c1.1-9.5 6.3-17.8 14.2-21.9 1.6-.8 3.3-1.4 5.1-1.9 1.8-.4 3.6-.7 5.6-.7h.1c10 0 17.8 5.8 21.9 14.2.8 1.6 1.5 3.2 2 4.9.4 1.5.8 3 1 4.7 0 .2.1.4.1.5l4.1 32.2z"/>
  </g>
  <g id="g56" transform="translate(122.564 24.986)">
    <path id="path58" class="st2" d="M431.1 71.8c0 3.2-2.6 5.8-5.8 5.8-3.2 0-5.8-2.6-5.8-5.8V24.1c0-.3 0-.7.1-1 .1-.6.2-1.3.5-1.9.1-.3.3-.7.5-1 1-1.7 2.5-3.1 4.5-3.8.3-.1.5-.2.8-.2.2 0 .4-.1.6-.1.4-.1.8-.1 1.4-.1h.1c2.4.1 4.6 1.2 6.1 3.1l30.7 39.1V20.5c0-3.2 2.6-5.8 5.8-5.8 3.2 0 5.8 2.6 5.8 5.8V68c0 2.5-1.1 4.8-3 6.3-.4.3-.8.6-1.2.8-.2.1-.5.2-.7.4h-.1c-.2.1-.3.1-.5.2-2.1.7-4.3.6-6.2-.3-.3-.1-.5-.2-.7-.4-.4-.2-.8-.5-1.1-.9-.2-.2-.5-.5-.7-.8l-.2-.2-.1-.1-30.7-39.1v37.9z"/>
  </g>
  <g id="g60" transform="translate(143.78 26.345)">
    <path id="path62" class="st2" d="M499.9 64.7c3.2 0 5.8 2.6 5.8 5.8s-2.6 5.8-5.8 5.8h-17c-6.3 0-11.9-2.6-16.1-6.7-4.1-4.1-6.6-9.8-6.7-16V36.1c0-6.3 2.6-12 6.7-16.1 4.1-4.1 9.8-6.6 16-6.7h17c3.2 0 5.8 2.6 5.8 5.8s-2.6 5.8-5.8 5.8h-17c-3.1 0-5.9 1.3-7.9 3.3-2 2-3.3 4.8-3.3 7.9v17.3c0 3.1 1.3 5.9 3.3 7.9 2 2 4.8 3.3 7.9 3.3h17.1z"/>
  </g>
  <g id="g64" transform="translate(151.639 35.724)">
    <path id="path66" class="st2" d="M525.4 15.5c-4.3 0-8.1 1.7-10.9 4.4-2.7 2.6-4.4 6.2-4.5 10.2v10.7c0 3.9 1.7 7.5 4.4 10.2 2.8 2.7 6.7 4.4 10.9 4.4 4.3 0 8.1-1.7 10.9-4.4 2.7-2.6 4.4-6.2 4.4-10.2V30c0-3.9-1.7-7.5-4.4-10.2-2.6-2.6-6.5-4.3-10.8-4.3m0-11.5c7.4 0 14.1 2.9 18.9 7.6 4.9 4.7 8 11.3 8 18.5v10.7c0 7.2-3.1 13.8-8 18.5-4.8 4.7-11.5 7.6-18.9 7.6-7.4 0-14-2.9-18.9-7.6-4.9-4.7-8-11.2-8-18.5V30c0-7.2 3.1-13.8 8-18.5 4.9-4.6 11.6-7.5 18.9-7.5z"/>
  </g>
  <g id="g68" transform="translate(94.399 35.719)">
    <path id="path70" class="st2" d="M339.7 15.5v39.8H362c2 0 3.8-.8 5.1-2.2 1.3-1.3 2.1-3.1 2.1-5.1 0-1.9-.7-3.6-1.9-4.9l-.2-.2c-1.3-1.3-3.1-2.2-5.1-2.2h-7.6c-3.2 0-5.8-2.6-5.8-5.8 0-3.2 2.6-5.8 5.8-5.8h2.6c1.7-.1 3.2-.9 4.3-2 1.2-1.3 2-3 2-4.9 0-1.9-.8-3.6-2-4.9-1.2-1.2-3-2-4.9-2h-16.7zm-11.5 19.6V10c0-.8.2-1.6.5-2.3.3-.8.8-1.4 1.3-2l.1-.1c1-.9 2.3-1.6 3.8-1.6h22.5c5.1 0 9.7 2.1 13 5.4 3.3 3.3 5.4 7.9 5.4 13 0 3.6-1 6.9-2.8 9.8 1.2.8 2.3 1.6 3.3 2.6.1.1.2.3.4.4 3.2 3.3 5.1 7.9 5.1 12.9 0 5.2-2.1 9.9-5.5 13.3-3.4 3.4-8.1 5.5-13.2 5.5h-28c-3.2 0-5.8-2.6-5.8-5.8-.1 0-.1-26-.1-26z"/>
  </g>
</svg>
