<svg xmlns="http://www.w3.org/2000/svg" viewBox="0 0 137.54 169.11"><g id="Capa_2" data-name="Capa 2"><g id="Layer_1" data-name="Layer 1"><path d="M93.54,27.1c-6,7.1-15.6,12.7-25.2,11.9-1.2-9.6,3.5-19.8,9-26.1,6-7.3,16.5-12.5,25-12.9,1,10-2.9,19.8-8.8,27.1m8.7,13.8c-13.9-.8-25.8,7.9-32.4,7.9S53,41.3,42,41.5A41.07,41.07,0,0,0,7.14,62.7c-15,25.8-3.9,64,10.6,85,7.1,10.4,15.6,21.8,26.8,21.4,10.6-.4,14.8-6.9,27.6-6.9s16.6,6.9,27.8,6.7c11.6-.2,18.9-10.4,26-20.8a91.21,91.21,0,0,0,11.6-23.9c-.2-.2-22.4-8.7-22.6-34.3-.2-21.4,17.5-31.6,18.3-32.2-10-14.8-25.6-16.4-31-16.8"/></g></g></svg>

