<svg xmlns="http://www.w3.org/2000/svg" viewBox="0 0 288.66 169.11">
    <g>
        <g id="Capa_2" data-name="Capa 2">
            <g id="Layer_1" data-name="Layer 1">
                <path d="M93.54,27.1c-6,7.1-15.6,12.7-25.2,11.9-1.2-9.6,3.5-19.8,9-26.1,6-7.3,16.5-12.5,25-12.9,1,10-2.9,19.8-8.8,27.1m8.7,13.8c-13.9-.8-25.8,7.9-32.4,7.9S53,41.3,42,41.5A41.07,41.07,0,0,0,7.14,62.7c-15,25.8-3.9,64,10.6,85,7.1,10.4,15.6,21.8,26.8,21.4,10.6-.4,14.8-6.9,27.6-6.9s16.6,6.9,27.8,6.7c11.6-.2,18.9-10.4,26-20.8a91.21,91.21,0,0,0,11.6-23.9c-.2-.2-22.4-8.7-22.6-34.3-.2-21.4,17.5-31.6,18.3-32.2-10-14.8-25.6-16.4-31-16.8"/>
            </g>
        </g>
    </g>

    <g transform="translate(147.54, 30)">
        <g data-name="Capa 2">
            <g data-name="Capa 1">
                <path d="M141.12 73.6a89 89 0 0 0-1.2-14.6H72v27.7h38.9a33.34 33.34 0 0 1-14.4 21.9v18h23.2c13.6-12.5 21.4-31 21.4-53Z" style="fill:#4285f4"/>
                <path d="M72 144c19.4 0 35.8-6.4 47.7-17.4l-23.2-18c-6.5 4.4-14.8 6.9-24.5 6.9-18.8 0-34.7-12.7-40.4-29.7H7.72v18.6A72.1 72.1 0 0 0 72 144Z" style="fill:#34a853"/>
                <path d="M31.62 85.8a43.44 43.44 0 0 1 0-27.6V39.7H7.72a71.45 71.45 0 0 0 0 64.6Z" style="fill:#fbbc04"/>
                <path d="M72 28.5a38.75 38.75 0 0 1 27.6 10.8l20.5-20.5A68.73 68.73 0 0 0 72 0 72 72 0 0 0 7.72 39.7l23.9 18.6c5.7-17.1 21.6-29.8 40.38-29.8Z" style="fill:#ea4335"/>
            </g>
        </g>
    </g>
</svg>

