<svg xmlns="http://www.w3.org/2000/svg" width="641" height="191" viewBox="0 0 641 191">
  <path d="M316.789 67.816c-5.487 0-9.911 4.414-9.911 9.732v73.089a9.894 9.894 0 009.91 9.914 9.898 9.898 0 009.92-9.914v-73.09c0-5.317-4.426-9.731-9.92-9.731zm0-36.466a11.108 11.108 0 00-11.151 11.148c0 6.18 4.964 11.324 11.15 11.324 6.203 0 11.16-5.144 11.16-11.324a11.106 11.106 0 00-11.16-11.148zm96.63 46.01c0-6.174-4.946-8.487-9.196-8.487h-49.017c-4.784 0-8.676 3.723-8.676 8.487 0 4.794 3.892 8.676 8.676 8.676h32.205l-41.754 58.05c-1.244 1.767-1.944 3.9-1.944 5.842 0 6.008 4.95 9.555 9.02 9.555h52.03c4.767 0 8.657-3.896 8.657-8.677 0-4.767-3.703-8.672-8.656-8.672H369.72l40.875-56.797c2.115-2.826 2.824-5.305 2.824-7.977zm-144.535 46.029c0 12.029-5.32 19.459-17.178 19.459-12.034 0-17.164-7.43-17.164-19.46V86.037h18.008c14.517 0 16.334 7.968 16.334 16.824v20.529zm19.642-20.881c0-20.54-10.844-33.635-35.812-33.635h-18.172V41.259c0-5.497-4.418-9.91-9.737-9.91a9.88 9.88 0 00-9.906 9.91l.003 82.13c0 20.347 10.968 37.162 36.804 37.162 25.662 0 36.825-16.815 36.825-37.162v-20.53h-.005v-.351zM490.64 67.816a9.887 9.887 0 00-9.912 9.91v45.663c0 12.029-5.316 19.459-17.178 19.459-12.031 0-17.164-7.43-17.164-19.46V77.728c0-5.497-4.418-9.911-9.736-9.911a9.883 9.883 0 00-9.906 9.91l.003 45.663c0 20.347 10.969 37.162 36.803 37.162 25.662 0 36.826-16.815 36.826-37.162V77.727c0-5.497-4.421-9.911-9.736-9.911zm150.178 37.157c0-20.345-9.416-37.171-35.246-37.171-11.514 0-19.774 3.407-25.395 8.982-5.615-5.575-13.881-8.982-25.467-8.982-25.666 0-35.24 16.826-35.24 37.17l-.014 45.665c0 5.49 4.422 9.914 9.737 9.914a9.894 9.894 0 009.91-9.914v-45.664c0-12.035 3.75-19.462 15.607-19.462 12.032 0 15.604 7.427 15.604 19.462v45.664c0 5.49 4.428 9.914 9.744 9.914a9.894 9.894 0 009.91-9.914v-45.664c0-12.035 3.742-19.462 15.604-19.462 12.03 0 15.607 7.427 15.607 19.462v45.664c0 5.49 4.416 9.914 9.74 9.914a9.89 9.89 0 009.907-9.914l-.008-45.664zM34.9 67.919c6.92 5.027 16.609 3.478 21.652-3.452L74.765 39.4c5.037-6.925 3.503-16.62-3.43-21.647-6.922-5.047-16.612-3.508-21.64 3.426L31.464 46.256c-5.024 6.929-3.508 16.61 3.437 21.663zm83.158-35.363c-6.915-5.048-16.61-3.497-21.638 3.419L23.535 136.292c-5.038 6.916-3.497 16.62 3.417 21.644 6.934 5.033 16.625 3.506 21.652-3.427l72.892-100.32c5.038-6.925 3.498-16.608-3.437-21.633zm-90.026-7.952c5.037-6.917 3.497-16.62-3.413-21.647-6.946-5.03-16.635-3.48-21.657 3.416-5.033 6.935-3.5 16.629 3.426 21.656 6.916 5.035 16.619 3.499 21.644-3.425zm110.603 137.833c-6.914-5.022-16.62-3.482-21.643 3.433-5.026 6.925-3.501 16.62 3.422 21.65 6.935 5.039 16.625 3.499 21.659-3.433 5.028-6.917 3.487-16.62-3.438-21.65zm-28.511-39.872c-6.914-5.028-16.62-3.488-21.638 3.436L70.26 151.086c-5.026 6.917-3.501 16.6 3.419 21.649 6.935 5.04 16.629 3.492 21.656-3.438l18.236-25.076c5.019-6.924 3.488-16.62-3.447-21.656z" fill="#05C0C7" fill-rule="evenodd"/>
</svg>
