<svg xmlns="http://www.w3.org/2000/svg" viewBox="0 0 800 526.294">
  <path d="M317.75 282.976c-1.608 5.709-3.968 10.34-7.963 13.919-4.365 4.25-10.57 7.795-18.152 9.112-3.624.689-6.23 1.034-10.375 1.034-27.45 0-41.475-19.143-41.475-44.683 0-25.55 13.389-45.92 40.82-45.92 9.386 0 16.51 1.944 22.58 5.558 6.78 4.004 11.781 10.199 13.964 13.398l18.073-8.732c-11.215-16.87-28.864-23.87-51.638-23.87-39.628 0-64.594 22.333-64.594 59.345 0 35.474 21.678 58.893 62.623 58.893 27.485 0 54.767-11.382 57.869-38.054zm82.375-38.253c-20.618 0-33.945 12.815-33.945 32.637 0 19.823 13.327 32.638 33.945 32.638 20.627 0 33.955-12.815 33.955-32.638 0-19.822-13.328-32.637-33.955-32.637m0 77.559c-33.627 0-52.15-15.952-52.15-44.922 0-28.554 19.01-44.921 52.15-44.921 33.628 0 52.16 15.952 52.16 44.921 0 28.97-18.532 44.922-52.16 44.922m90.543-3.12h-17.216v-71.31h-21.528v-12.294h21.528v-4.365c0-22.669 9.341-32.78 30.295-32.78 4.879 0 10.5.372 15.024.99l.486.08v12.329l-.654-.115c-2.059-.371-6.15-.981-10.578-.981-12.488 0-17.357 5.046-17.357 18.002v6.84h26.46v12.294h-26.46zM696.633 216.96h-17.216V199.4h17.216zm.002 102.202H679.42V243.31l16.438-7.75h.777zM548.673 216.96H531.45V199.4h17.224zm.002 102.202h-17.224v-75.694l17.224-8.175zm204.919 3.122c-21.334 0-35.775-6.682-40.662-18.824l-.195-.487 16.615-7.883.124.725c1.644 9.545 10.12 14.184 25.92 14.184 17.022 0 26.399-4.878 26.399-13.733 0-7.857-12.178-9.784-26.266-12.002-18.956-2.987-40.458-6.372-40.458-25.47 0-16.747 14.82-26.362 40.653-26.362 13.875 0 31.78 2.704 38.284 15.59l.257.512-15.13 7.176-.221-.557c-2.722-7.114-9.88-10.428-22.527-10.428-14.406 0-24.083 4.799-24.083 11.93 0 5.48 5.276 8.909 17.119 11.127l27.281 5.082c16.103 3.084 23.296 9.942 23.296 22.244 0 18.285-15.183 27.176-46.406 27.176m-141.148-77.561c-19.425 0-31.974 12.815-31.974 32.637 0 19.823 12.55 32.638 31.974 32.638 19.425 0 31.975-12.815 31.975-32.638 0-19.822-12.55-32.637-31.975-32.637m-3.614 77.559c-26.548 0-46.566-19.31-46.566-44.922 0-25.611 20.018-44.921 46.566-44.921 15.103 0 26.76 4.295 35.589 13.141v-38.435l16.438-7.741h.778v99.82c0 5.356.3 11.931.662 19.355l.036.583h-17.198l-.053-.504c-.292-3.137-.592-6.495-.654-10.287-8.405 8.856-21.281 13.91-35.598 13.91M336.412 175.14c-1.052-.964.654-7.61 2.642-14.097 11.383-35.209 68.898-96.745 78.01-101.305 4.091-2.05-14.582 29.508-33.141 62.764-10.64 19.09-45.284 54.13-47.423 52.593-.035-.018-.062.035-.088.044" fill="#d0103a"/>
  <path d="M281.273 526.212c-1.21.963-3.27-6.204-4.11-11.498-8.943-56.278-12.593-136.7 2.987-158.697.248-.336.486-.592.743-.796.857-.689 1.918-.813 2.845-.335 1.167.6 6.337 3.19 9.13 36.959 1.6 19.442.866 37.268-.345 51.611-2.572 30.64-7.15 79.468-11.25 82.756M96.1 365.632c-2.06-.15 1.599-3.8 1.599-3.8 37.17-33.822 69.932-46.857 87.28-46.857 1.44 0 2.713.115 3.765.336 1.608.344 2.73.937 3.314 1.732 1.874.778 2.218 2.21 2.28 2.837.186 2.032 5.656 5.921-35.713 25.806-13.848 6.654-57.877 20.282-62.526 19.946M209.307 215.63h-.01c-38.372-3.173-79.617-52.664-104.256-82.234-6.381-7.654-16.562-19.231-15.829-20.583.248-.469 1.034-.654 2.581-.31 6.77 1.503 47.891 22.846 72.442 42.36.583.459 57.506 47.095 53.6 58.283-.424 1.211-1.59 2.652-4.746 2.643a45.18 45.18 0 01-3.782-.16m-84.192 61.841c-12.382 0-36.058-1.343-47.573-1.732-21.617-.743-80.608-5.488-77.418-9.377 2.67-3.243 60.856-16.05 112.618-16.05 19.894 0 38.453.85 55.165 2.52 24.02 2.412 29.173 7.715 30.189 9.28.512.803.636 1.758.327 2.686-.893 2.757-5.25 4.533-5.745 4.728-13.795 5.417-35.27 7.945-67.563 7.945M383.296 439.4c-17.18-13.752-56.905-71.603-62.888-98.24-.893-3.994.521-5.258.857-5.655a2.81 2.81 0 012.015-1.008h.062c1.246 0 3.243.186 15.607 13.663 16.889 18.409 31.4 44.33 38.55 58.134 6.062 11.728 16.446 34.758 15.227 39.124-.451 1.626-9.43-6.018-9.43-6.018m-87.987-258.765a2.718 2.718 0 01-1.308-.663c-.849-.76-2.413-2.165-2.245-23.313.353-48.006 24.383-113.643 29.95-120.156.681-.796 1.079-1.582 1.556-1.494 1.14.23 1.184 1.087 1.343 2.775 4.808 66.468-11.038 122.383-23.667 139.175-2.094 2.81-3.941 4.012-5.63 3.676m-56.98-4.285l-.769-.397c-.901-.46-22.35-11.94-46.15-68.562-16.782-39.91-24.391-64.877-28.466-79.123-4.763-16.677-6.84-26.442-4.657-28.219.477-.389 2.342 1.635 2.748 2.112 2.183 2.555 9.519 9.978 46.592 77.02 30.94 55.969 37.463 83.038 37.357 88.748-.08 4.931-5.647 7.892-5.886 8.024zM146.75 443.323c16.676-26.99 26.061-53.547 58.177-90.064 15.837-18.003 30.048-22.033 32.452-21.767a3.55 3.55 0 011.626.618c2.952 2.104 1.715 7.91 1.503 8.555-10.614 31.639-39.726 71.02-57.577 92.335-24.976 29.827-57.613 60.458-58.762 56.782-1.14-3.676 13.283-31.418 22.58-46.46" fill="#fecb00"/>
</svg>
