<svg xmlns="http://www.w3.org/2000/svg" viewBox="0 0 141.12 144"><g data-name="Capa 2"><g data-name="Capa 1"><path d="M141.12 73.6a89 89 0 0 0-1.2-14.6H72v27.7h38.9a33.34 33.34 0 0 1-14.4 21.9v18h23.2c13.6-12.5 21.4-31 21.4-53Z" style="fill:#4285f4"/><path d="M72 144c19.4 0 35.8-6.4 47.7-17.4l-23.2-18c-6.5 4.4-14.8 6.9-24.5 6.9-18.8 0-34.7-12.7-40.4-29.7H7.72v18.6A72.1 72.1 0 0 0 72 144Z" style="fill:#34a853"/><path d="M31.62 85.8a43.44 43.44 0 0 1 0-27.6V39.7H7.72a71.45 71.45 0 0 0 0 64.6Z" style="fill:#fbbc04"/><path d="M72 28.5a38.75 38.75 0 0 1 27.6 10.8l20.5-20.5A68.73 68.73 0 0 0 72 0 72 72 0 0 0 7.72 39.7l23.9 18.6c5.7-17.1 21.6-29.8 40.38-29.8Z" style="fill:#ea4335"/></g></g></svg>

