<svg xmlns="http://www.w3.org/2000/svg" xml:space="preserve" id="Layer_1" x="0" y="0" style="enable-background:new 0 0 258 24" version="1.1" viewBox="0 0 258 24"><style>.st0{opacity:7.000000e-02;enable-background:new}.st1{fill:#fff}.st6{fill:#231f20}</style><path d="M35 0H3C1.3 0 0 1.3 0 3v18c0 1.7 1.4 3 3 3h32c1.7 0 3-1.3 3-3V3c0-1.7-1.4-3-3-3z" class="st0"/><path d="M35 1c1.1 0 2 .9 2 2v18c0 1.1-.9 2-2 2H3c-1.1 0-2-.9-2-2V3c0-1.1.9-2 2-2h32" class="st1"/><path d="M28.3 10.1H28c-.4 1-.7 1.5-1 3h1.9c-.3-1.5-.3-2.2-.6-3zm2.9 5.9h-1.7c-.1 0-.1 0-.2-.1l-.2-.9-.1-.2h-2.4c-.1 0-.2 0-.2.2l-.3.9c0 .1-.1.1-.1.1h-2.1l.2-.5L27 8.7c0-.5.3-.7.8-.7h1.5c.1 0 .2 0 .2.2l1.4 6.5c.1.4.2.7.2 1.1.1.1.1.1.1.2zm-13.4-.3.4-1.8c.1 0 .2.1.2.1.7.3 1.4.5 2.1.4.2 0 .5-.1.7-.2.5-.2.5-.7.1-1.1-.2-.2-.5-.3-.8-.5-.4-.2-.8-.4-1.1-.7-1.2-1-.8-2.4-.1-3.1.6-.4.9-.8 1.7-.8 1.2 0 2.5 0 3.1.2h.1c-.1.6-.2 1.1-.4 1.7-.5-.2-1-.4-1.5-.4-.3 0-.6 0-.9.1-.2 0-.3.1-.4.2-.2.2-.2.5 0 .7l.5.4c.4.2.8.4 1.1.6.5.3 1 .8 1.1 1.4.2.9-.1 1.7-.9 2.3-.5.4-.7.6-1.4.6-1.4 0-2.5.1-3.4-.2-.1.2-.1.2-.2.1zm-3.5.3c.1-.7.1-.7.2-1 .5-2.2 1-4.5 1.4-6.7.1-.2.1-.3.3-.3H18c-.2 1.2-.4 2.1-.7 3.2-.3 1.5-.6 3-1 4.5 0 .2-.1.2-.3.2M5 8.2c0-.1.2-.2.3-.2h3.4c.5 0 .9.3 1 .8l.9 4.4c0 .1 0 .1.1.2 0-.1.1-.1.1-.1l2.1-5.1c-.1-.1 0-.2.1-.2h2.1c0 .1 0 .1-.1.2l-3.1 7.3c-.1.2-.1.3-.2.4-.1.1-.3 0-.5 0H9.7c-.1 0-.2 0-.2-.2L7.9 9.5c-.2-.2-.5-.5-.9-.6-.6-.3-1.7-.5-1.9-.5L5 8.2z" style="fill:#142688"/><path d="M79 0H47c-1.7 0-3 1.3-3 3v18c0 1.7 1.4 3 3 3h32c1.7 0 3-1.3 3-3V3c0-1.7-1.4-3-3-3z" class="st0"/><path d="M79 1c1.1 0 2 .9 2 2v18c0 1.1-.9 2-2 2H47c-1.1 0-2-.9-2-2V3c0-1.1.9-2 2-2h32" class="st1"/><circle cx="59" cy="12" r="7" style="fill:#eb001b"/><circle cx="67" cy="12" r="7" style="fill:#f79e1b"/><path d="M66 12c0-2.4-1.2-4.5-3-5.7-1.8 1.3-3 3.4-3 5.7s1.2 4.5 3 5.7c1.8-1.2 3-3.3 3-5.7z" style="fill:#ff5f00"/><path d="M123 0H91c-1.7 0-3 1.3-3 3v18c0 1.7 1.4 3 3 3h32c1.7 0 3-1.3 3-3V3c0-1.7-1.4-3-3-3z" class="st0"/><path d="M123 1c1.1 0 2 .9 2 2v18c0 1.1-.9 2-2 2H91c-1.1 0-2-.9-2-2V3c0-1.1.9-2 2-2h32z" class="st1"/><path d="M91.6 7.2H90v5.5h1.6c.8 0 1.4-.2 2-.6.6-.5 1-1.3 1-2.1-.1-1.7-1.3-2.8-3-2.8zm1.2 4.1c-.3.3-.8.4-1.5.4H91V8.1h.3c.7 0 1.1.1 1.5.4.4.3.6.8.6 1.4s-.2 1.1-.6 1.4zM95 7.2h1.1v5.5H95V7.2zm3.7 2.1c-.6-.2-.8-.4-.8-.7 0-.4.3-.6.8-.6.3 0 .6.1.9.5l.6-.7c-.5-.4-1-.6-1.6-.6-1 0-1.7.7-1.7 1.6 0 .8.3 1.1 1.3 1.5.4.1.6.2.7.3.2.1.3.3.3.6 0 .4-.3.8-.8.8s-.9-.3-1.2-.7l-.7.7c.5.7 1.1 1.1 1.9 1.1 1.1 0 1.9-.7 1.9-1.8 0-1.2-.4-1.6-1.6-2zm1.9.6c0 1.6 1.3 2.9 2.9 2.9.5 0 .9-.1 1.3-.3v-1.3c-.4.4-.8.6-1.3.6-1.1 0-1.8-.8-1.8-1.9 0-1.1.8-1.9 1.8-1.9.5 0 .9.2 1.3.6V7.4c-.4-.3-.8-.4-1.2-.4-1.7 0-3 1.3-3 2.9zm12.8 1-1.5-3.7h-1.2l2.3 5.6h.6l2.4-5.6h-1.2c.1 0-1.4 3.7-1.4 3.7zm3.1 1.8h3v-.9h-2v-1.5h1.9v-1h-1.9V8.1h2v-.9h-3v5.5zm7.3-3.9c0-1-.7-1.6-1.9-1.6h-1.6v5.5h1.1v-2.2h.1l1.5 2.2h1.3l-1.7-2.3c.8-.2 1.2-.8 1.2-1.6zm-2.1.9h-.3V8h.3c.7 0 1 .3 1 .8 0 .6-.4.9-1 .9z" class="st6"/><linearGradient id="SVGID_1_" x1="33.658" x2="31.633" y1="13.726" y2="16.897" gradientTransform="matrix(1 0 0 -1 76 26)" gradientUnits="userSpaceOnUse"><stop offset="0" style="stop-color:#f89f20"/><stop offset=".25" style="stop-color:#f79a20"/><stop offset=".533" style="stop-color:#f68d20"/><stop offset=".62" style="stop-color:#f58720"/><stop offset=".723" style="stop-color:#f48120"/><stop offset="1" style="stop-color:#f37521"/></linearGradient><path d="M108.2 12.9c1.6 0 2.9-1.3 2.9-2.9 0-1.6-1.3-2.9-2.9-2.9-1.6 0-2.9 1.3-2.9 2.9-.1 1.5 1.2 2.9 2.9 2.9z" style="fill:url(#SVGID_1_)"/><linearGradient id="SVGID_00000179624638990268844900000013053530393499921844_" x1="33.339" x2="30.378" y1="13.768" y2="19.554" gradientTransform="matrix(1 0 0 -1 76 26)" gradientUnits="userSpaceOnUse"><stop offset="0" style="stop-color:#f58720"/><stop offset=".359" style="stop-color:#e16f27"/><stop offset=".703" style="stop-color:#d4602c"/><stop offset=".982" style="stop-color:#d05b2e"/></linearGradient><path d="M108.2 12.9c1.6 0 2.9-1.3 2.9-2.9 0-1.6-1.3-2.9-2.9-2.9-1.6 0-2.9 1.3-2.9 2.9-.1 1.5 1.2 2.9 2.9 2.9z" style="opacity:.65;fill:url(#SVGID_00000179624638990268844900000013053530393499921844_);enable-background:new"/><path d="M124.6 7.5c0-.1-.1-.2-.2-.2h-.2v.5h.1v-.2l.1.2h.1l-.2-.2c.2 0 .3 0 .3-.1zm-.2.1v-.1c0-.1.1 0 0 .1.1 0 0 0 0 0z" class="st6"/><path d="M124.4 7.2c-.2 0-.4.2-.4.4s.2.4.4.4.4-.2.4-.4-.2-.4-.4-.4zm0 .7c-.2 0-.3-.2-.3-.3 0-.2.2-.3.3-.3.2 0 .3.2.3.3s-.1.3-.3.3z" class="st6"/><path d="M125 13s-9.9 6.9-28 10h26c1.1 0 2-.9 2-2v-8z" style="fill:#f48120"/><path d="M167 0h-32c-1.7 0-3 1.3-3 3v18c0 1.7 1.4 3 3 3h32c1.7 0 3-1.3 3-3V3c0-1.7-1.4-3-3-3z" class="st0"/><path d="M167 1c1.1 0 2 .9 2 2v18c0 1.1-.9 2-2 2h-32c-1.1 0-2-.9-2-2V3c0-1.1.9-2 2-2h32" class="st1"/><path d="M144 12v3.7c0 .3-.2.3-.5.2-1.9-.8-3-3.3-2.3-5.4.4-1.1 1.2-2 2.3-2.4.4-.2.5-.1.5.2V12zm2 0V8.3c0-.3 0-.3.3-.2 2.1.8 3.2 3.3 2.4 5.4-.4 1.1-1.2 2-2.3 2.4-.4.2-.4.1-.4-.2V12zm7.2-7H145c3.8 0 6.8 3.1 6.8 7s-3 7-6.8 7h8.2c3.8 0 6.8-3.1 6.8-7s-3-7-6.8-7z" style="fill:#3086c8"/><path d="M220 21.8v.7-.7zM237.7 0v24h-7.2c-1.3 0-2.1-1-1.8-2.3l4.4-19.4C233.4 1 235 0 236.3 0h1.4zm12.6 0c-1.3 0-2.9 1-3.2 2.3l-4.5 19.4c-.3 1.3.5 2.3 1.8 2.3h-4.9V0h10.8z" style="fill:#005b9a"/><path d="M236.3 0c-1.3 0-2.9 1.1-3.2 2.3l-4.4 19.4c-.3 1.3.5 2.3 1.8 2.3h-8.9c-.8 0-1.5-.6-1.5-1.4v-21c0-.8.7-1.6 1.5-1.6h14.7z" style="fill:#e9292d"/><path d="M250.3 0c-1.3 0-2.9 1.1-3.2 2.3l-4.4 19.4c-.3 1.3.5 2.3 1.8 2.3H230h.5c-1.3 0-2.1-1-1.8-2.3l4.4-19.4C233.4 1 235 0 236.3 0h14z" style="fill:#0e73b9"/><path d="M258 1.6v21c0 .8-.6 1.4-1.5 1.4h-12.1c-1.3 0-2.1-1.1-1.8-2.3l4.5-19.4C247.4 1 249 0 250.3 0h6.2c.9 0 1.5.7 1.5 1.6z" style="fill:#059da4"/><path d="M234.9 13.6h.1c.1 0 .3-.1.3-.1l.4-.6h1.2l-.2.3h1.4l-.2.6h-1.7c-.2.3-.4.4-.7.4h-.8l.2-.6m-.2 1h3l-.2.7h-1.2l-.2.7h1.2l-.2.7h-1.2l-.3 1c-.1.1 0 .3.3.2h1l-.2.7h-1.9c-.4 0-.5-.2-.4-.6l.4-1.3h-.8l.2-.7h.8l.2-.7h-.7l.2-.7zm4.8-1.8v.4s.6-.4 1.1-.4h2l-.8 2.7c-.1.3-.3.5-.8.5h-2.2l-.5 1.9c0 .1 0 .1.1.1h.4l-.1.6h-1.1c-.4 0-.6-.1-.5-.3l1.5-5.4c0-.1.9-.1.9-.1zm1.7.8h-1.8l-.2.7s.3-.2.8-.2h1.1c-.1 0 .1-.5.1-.5zm-.7 1.7c.1 0 .2 0 .2-.1l.1-.3h-1.7l-.1.6c0-.2 1.5-.2 1.5-.2zm-1.1.8h1v.4h.3c.1 0 .2-.1.2-.1l.1-.3h.8l-.1.5c-.1.3-.4.5-.8.6h-.6v.8c0 .1.1.2.3.2h.5l-.1.6h-1.2c-.4 0-.5-.1-.5-.5 0-.1.1-2.2.1-2.2zm4.2-2.5.2-.8h1.2l-.1.3s.6-.3 1.1-.3h1.5l-.2.8h-.3l-1.1 3.8h.2l-.2.8h-.2l-.1.3h-1.2l.1-.3h-2.2l.2-.8h.2l1.1-3.8h-.2m1.2 0-.3 1s.5-.2.9-.3c.1-.3.2-.8.2-.8h-.8zm-.5 1.6-.3 1.1s.6-.3 1-.3l.2-.8h-.9zm.2 2.3.2-.8h-.8l-.2.8h.8zm2.9-4.7h1.1l.1.4c0 .1.1.1.2.1h.2l-.2.7h-.8c-.3 0-.5-.1-.5-.3l-.1-.9zm-.3 1.5h3.6l-.2.8h-1.2l-.2.7h1.1l-.2.8h-1.3l-.3.4h.6l.1.8c0 .1.1.1.2.1h.2l-.2.7h-.7c-.3 0-.6-.1-.6-.3l-.1-.8-.6.8c-.1.2-.4.3-.6.3h-1.1l.2-.7h.3c.1 0 .2-.1.4-.2l.8-1.3h-1l.2-.8h1.2l.3-.6h-1.2l.3-.7zm-19.8-5.1c-.1.7-.4 1.2-.9 1.5-.5.3-1.1.6-1.9.6-.7 0-1.3-.2-1.5-.6-.2-.3-.3-.6-.3-1 0-.1 0-.3.1-.6l.8-3.9h1.2l-.8 4v.3c0 .2.1.3.1.5.1.2.4.3.7.3.4 0 .7-.1.9-.3s.4-.4.5-.8l.8-3.9h1.2l-.9 3.9m1.1-1.5h.8l-.1.5.1-.1c.3-.3.6-.4 1.1-.4.4 0 .6.1.8.3s.2.5.1.9l-.5 2.4h-.9l.4-2.2c.1-.3.1-.5 0-.6-.1-.1-.2-.1-.3-.1-.2 0-.4.1-.6.2s-.3.3-.3.6l-.4 2h-.9l.7-3.5m9.8 0h.8v.5l.1-.1c.3-.3.6-.4 1.1-.4.3 0 .6.1.8.3s.2.5.1.9l-.5 2.4h-.9l.4-2.2c.1-.2 0-.4-.1-.5-.1-.1-.2-.1-.4-.1s-.4.1-.6.2-.3.3-.3.6l-.4 2h-.9l.8-3.6m-5.8 0h1l-.8 3.5h-1l.8-3.5m.4-1.3h1l-.2.8h-1l.2-.8zm1.4 4.5c-.2-.2-.4-.6-.4-1v-.2c0-.1 0-.2.1-.3.1-.6.3-1 .7-1.3.4-.3.8-.5 1.3-.5.4 0 .8.1 1.1.3.2.2.3.6.3 1v.2c0 .1 0 .2-.1.3-.1.6-.4 1-.7 1.3-.4.3-.8.5-1.3.5-.3.1-.7-.1-1-.3m1.9-.7c.1-.2.3-.5.3-.8V9c0-.2-.1-.3-.1-.5-.1-.1-.3-.2-.5-.2-.3 0-.5.1-.6.3s-.3.5-.3.8v.3c0 .2.1.3.1.5.1.1.3.2.5.2.2.1.4 0 .6-.2m6.5-4.7h2.5c.5 0 .8.1 1.1.4.3.2.4.6.4.9v.3c0 .1 0 .2-.1.3-.1.5-.3 1-.7 1.3-.4.3-.8.5-1.4.5H243l-.4 2h-1.2l1.2-5.7m.5 2.6h1.1c.3 0 .5-.1.7-.2.1-.1.3-.3.4-.6V7c0-.2-.1-.4-.2-.4s-.3-.1-.7-.1h-.9l-.4 1.6zm8.7 3.7c-.4.8-.7 1.3-.9 1.5-.2.2-.6.7-1.6.7l.1-.6c.8-.3 1.3-1.4 1.5-2l-.3-3.8h1.2l.1 2.4.9-2.3h1.1l-2.1 4.1M248.9 8l-.4.3c-.4-.3-.8-.6-1.5-.2-1 .5-1.9 4.1.9 2.9l.1.2h1.1l.7-3.3-.9.1m-.6 1.8c-.2.6-.6.8-.9.8-.3-.1-.3-.6-.2-1.2.2-.6.6-.8.9-.8.3.1.4.6.2 1.2" class="st1"/><path d="M211 0h-32c-1.7 0-3 1.3-3 3v18c0 1.7 1.4 3 3 3h32c1.7 0 3-1.3 3-3V3c0-1.7-1.4-3-3-3z" class="st0"/><path d="M211 1c1.1 0 2 .9 2 2v18c0 1.1-.9 2-2 2h-32c-1.1 0-2-.9-2-2V3c0-1.1.9-2 2-2h32" class="st1"/><path d="M187.5 5h3.5v11.5c0 1.4-1.1 2.5-2.5 2.5H185V7.5c0-1.4 1.1-2.5 2.5-2.5z" style="fill-rule:evenodd;clip-rule:evenodd;fill:#006ebc"/><path d="M194.5 5h3.5v11.5c0 1.4-1.1 2.5-2.5 2.5H192V7.5c0-1.4 1.1-2.5 2.5-2.5z" style="fill-rule:evenodd;clip-rule:evenodd;fill:#f00036"/><path d="M201.5 5h3.5v11.5c0 1.4-1.1 2.5-2.5 2.5H199V7.5c0-1.4 1.1-2.5 2.5-2.5z" style="fill-rule:evenodd;clip-rule:evenodd;fill:#2ab419"/><path d="M186.8 14.5c-1.1 0-2.1-.3-2.7-1l.8-.7c.1 1.1 3.5 1.2 3.5-.2V9.5h1.8v3.1c0 .7-.6 1.3-1.6 1.6-.4.2-1.3.3-1.8.3zm8.1 0c-.7 0-1.4-.1-2-.4-.9-.4-1.3-1.2-1.3-2.2 0-1 .4-1.8 1.5-2.2 1.3-.5 3.3-.3 3.9.3v1c-.6-.5-2-.9-2.9-.5-.5.2-.7.9-.7 1.4 0 .6.2 1.3.7 1.5 1 .5 2.4 0 2.9-.4v1c-.4.3-1.3.5-2.1.5zm8.7-2.6c.4-.2.6-.6.6-1s-.1-.7-.3-.9c-.2-.2-.6-.5-1.2-.5H199v5h3.5c.7 0 1.1-.2 1.3-.4.3-.2.4-.5.4-1 .1-.4-.1-.9-.6-1.2zm-2-.3h-1.4v-1.4h1.5c1 0 1 1.4-.1 1.4zm.3 2.2h-1.7v-1.5h1.7c1 0 1.1 1.5 0 1.5z" class="st1"/></svg>